<?xml version="1.0" encoding="UTF-8" standalone="no"?>
<!DOCTYPE svg PUBLIC "-//W3C//DTD SVG 1.1//EN" "http://www.w3.org/Graphics/SVG/1.1/DTD/svg11.dtd">
<svg version="1.1" xmlns="http://www.w3.org/2000/svg" xmlns:xlink="http://www.w3.org/1999/xlink" preserveAspectRatio="xMidYMid meet" viewBox="0 0 16 16" width="16" height="16"><defs><path d="M12.47 2.39L11.02 -0.04L8.42 1.07L5.81 -0.04L4.36 2.39L1.59 3.01L1.86 5.83L0 7.97L1.87 10.1L1.6 12.93L4.37 13.56L5.82 16L8.43 14.87L11.03 15.99L12.48 13.55L15.24 12.92L14.97 10.1L16.84 7.97L14.96 5.84L15.23 3.03L12.47 2.39ZM9.17 10.27L9.17 11.8L7.64 11.8L7.64 10.27L9.17 10.27ZM9.17 4.14L9.17 8.74L7.64 8.74L7.64 4.14L9.17 4.14Z" id="cgWCTF22I"></path><path d="M12.47 2.39L11.02 -0.04L8.42 1.07L5.81 -0.04L4.36 2.39L1.59 3.01L1.86 5.83L0 7.97L1.87 10.1L1.6 12.93L4.37 13.56L5.82 16L8.43 14.87L11.03 15.99L12.48 13.55L15.24 12.92L14.97 10.1L16.84 7.97L14.96 5.84L15.23 3.03L12.47 2.39ZM9.17 10.27L9.17 11.8L7.64 11.8L7.64 10.27L9.17 10.27ZM9.17 4.14L9.17 8.74L7.64 8.74L7.64 4.14L9.17 4.14Z" id="a4n5at7wvS"></path><path d="M12.47 2.39L11.02 -0.04L8.42 1.07L5.81 -0.04L4.36 2.39L1.59 3.01L1.86 5.83L0 7.97L1.87 10.1L1.6 12.93L4.37 13.56L5.82 16L8.43 14.87L11.03 15.99L12.48 13.55L15.24 12.92L14.97 10.1L16.84 7.97L14.96 5.84L15.23 3.03L12.47 2.39ZM9.17 10.27L9.17 11.8L7.64 11.8L7.64 10.27L9.17 10.27ZM9.17 4.14L9.17 8.74L7.64 8.74L7.64 4.14L9.17 4.14Z" id="a5GiEQzjWz"></path><path d="M5.39 1.12L4.83 0.02L3.71 0.45L2.63 -0.09L1.97 0.95L0.79 1.16L0.84 2.41L0 3.31L0.75 4.29L0.57 5.52L1.72 5.86L2.28 6.96L3.41 6.52L4.48 7.07L5.15 6.03L6.33 5.81L6.28 4.56L7.11 3.66L6.36 2.69L6.54 1.46L5.39 1.12ZM3.82 4.51L3.79 5.19L3.14 5.16L3.18 4.48L3.82 4.51ZM3.96 1.82L3.86 3.84L3.21 3.81L3.31 1.79L3.96 1.82Z" id="f55VzL2xJl"></path></defs><g><g><g><use xlink:href="#cgWCTF22I" opacity="1" fill="#edbe1c" fill-opacity="1"></use><g><use xlink:href="#cgWCTF22I" opacity="1" fill-opacity="0" stroke="#000000" stroke-width="1" stroke-opacity="0"></use></g></g><g><use xlink:href="#a4n5at7wvS" opacity="1" fill="#000000" fill-opacity="0"></use><g><use xlink:href="#a4n5at7wvS" opacity="1" fill-opacity="0" stroke="#000000" stroke-width="1" stroke-opacity="0"></use></g></g><g><use xlink:href="#a5GiEQzjWz" opacity="1" fill="#000000" fill-opacity="0"></use><g><use xlink:href="#a5GiEQzjWz" opacity="1" fill-opacity="0" stroke="#000000" stroke-width="1" stroke-opacity="0"></use></g></g><g><use xlink:href="#f55VzL2xJl" opacity="1" fill="#000000" fill-opacity="0"></use><g><use xlink:href="#f55VzL2xJl" opacity="1" fill-opacity="0" stroke="#000000" stroke-width="1" stroke-opacity="0"></use></g></g></g></g></svg>